<svg width="18" height="18" viewBox="0 0 18 18" fill="none" xmlns="http://www.w3.org/2000/svg">
<path d="M5.97935 16.9039V14.1437C5.97934 13.4443 6.54809 12.876 7.25258 12.8716H9.83933C10.547 12.8716 11.1206 13.4411 11.1206 14.1437V16.8959C11.1206 17.5025 11.6136 17.9955 12.2246 18H13.9894C14.8136 18.0021 15.6049 17.6785 16.1884 17.1006C16.772 16.5227 17.1 15.7381 17.1 14.9197V7.07925C17.1 6.41824 16.8048 5.79123 16.2941 5.36714L10.2987 0.60684C9.25065 -0.225789 7.75382 -0.198892 6.73684 0.670845L0.87031 5.36714C0.335466 5.77873 0.015797 6.4076 0 7.07925V14.9117C0 16.6173 1.39264 18 3.11055 18H4.83505C5.12925 18.0021 5.41213 17.8875 5.62092 17.6818C5.8297 17.476 5.94712 17.196 5.94712 16.9039H5.97935Z" fill="#0667CF"/>
</svg>
