<svg width="30" height="30" viewBox="0 0 30 30" fill="none" xmlns="http://www.w3.org/2000/svg">
<path d="M15.5214 5.8279C15.3586 5.71826 15.1666 5.65967 14.9701 5.65967C14.7736 5.65967 14.5816 5.71826 14.4188 5.8279C14.1234 6.02409 7.34009 10.7325 7.34009 17.6775C7.34009 19.6937 8.14396 21.6273 9.57486 23.053C11.0058 24.4787 12.9465 25.2796 14.9701 25.2796C16.9937 25.2796 18.9344 24.4787 20.3653 23.053C21.7962 21.6273 22.6001 19.6937 22.6001 17.6775C22.6001 10.6148 15.8069 6.01428 15.5214 5.8279ZM14.9701 23.3178C13.4695 23.3152 12.0311 22.7201 10.97 21.6629C9.90898 20.6057 9.31172 19.1726 9.30912 17.6775C9.30912 12.7729 13.4539 9.07477 14.9701 7.86823C16.4961 9.05515 20.631 12.7729 20.631 17.6775C20.6284 19.1726 20.0312 20.6057 18.9701 21.6629C17.909 22.7201 16.4707 23.3152 14.9701 23.3178Z" fill="#0667CF"/>
<path d="M14.3672 17.2341C14.3672 17.4575 14.3149 17.6617 14.2101 17.8468C14.1089 18.0283 13.9535 18.1749 13.7441 18.2867C13.5381 18.3949 13.285 18.449 12.9847 18.449H12.4768V19.6953H11.4504V16.0035H12.9847C13.2815 16.0035 13.5329 16.0558 13.7388 16.1606C13.9483 16.2653 14.1054 16.4102 14.2101 16.5952C14.3149 16.7802 14.3672 16.9932 14.3672 17.2341ZM12.8853 17.6321C13.175 17.6321 13.3199 17.4994 13.3199 17.2341C13.3199 16.9653 13.175 16.8309 12.8853 16.8309H12.4768V17.6321H12.8853ZM18.5028 16.0035V19.6953H17.4765V18.2133H16.2249V19.6953H15.1985V16.0035H16.2249V17.3912H17.4765V16.0035H18.5028Z" fill="#0667CF"/>
</svg>
