<svg width="16" height="16" viewBox="0 0 16 16" fill="none" xmlns="http://www.w3.org/2000/svg">
<path d="M15.7422 5.59111L10.4089 0.257778C10.327 0.177821 10.2304 0.114438 10.1244 0.071111C10.0142 0.0263262 9.89671 0.00222051 9.77777 0H2.66666C1.95942 0 1.28114 0.280952 0.781048 0.781049C0.280951 1.28115 0 1.95942 0 2.66667V13.3333C0 14.0406 0.280951 14.7189 0.781048 15.219C1.28114 15.719 1.95942 16 2.66666 16H13.3333C14.0406 16 14.7188 15.719 15.2189 15.219C15.719 14.7189 16 14.0406 16 13.3333V6.22222C16.0007 6.10524 15.9782 5.98927 15.934 5.88097C15.8898 5.77267 15.8246 5.67417 15.7422 5.59111ZM5.33333 1.77778H8.88888V3.55556H5.33333V1.77778ZM10.6667 14.2222H5.33333V11.5556C5.33333 11.3198 5.42698 11.0937 5.59368 10.927C5.76038 10.7603 5.98647 10.6667 6.22222 10.6667H9.77777C10.0135 10.6667 10.2396 10.7603 10.4063 10.927C10.573 11.0937 10.6667 11.3198 10.6667 11.5556V14.2222ZM14.2222 13.3333C14.2222 13.5691 14.1286 13.7952 13.9619 13.9619C13.7952 14.1286 13.5691 14.2222 13.3333 14.2222H12.4444V11.5556C12.4444 10.8483 12.1635 10.17 11.6634 9.66994C11.1633 9.16984 10.485 8.88889 9.77777 8.88889H6.22222C5.51497 8.88889 4.8367 9.16984 4.3366 9.66994C3.8365 10.17 3.55555 10.8483 3.55555 11.5556V14.2222H2.66666C2.43092 14.2222 2.20482 14.1286 2.03813 13.9619C1.87143 13.7952 1.77778 13.5691 1.77778 13.3333V2.66667C1.77778 2.43092 1.87143 2.20483 2.03813 2.03813C2.20482 1.87143 2.43092 1.77778 2.66666 1.77778H3.55555V4.44444C3.55555 4.68019 3.6492 4.90628 3.8159 5.07298C3.9826 5.23968 4.20869 5.33333 4.44444 5.33333H9.77777C10.0135 5.33333 10.2396 5.23968 10.4063 5.07298C10.573 4.90628 10.6667 4.68019 10.6667 4.44444V3.03111L14.2222 6.58667V13.3333Z" fill="#0667CF"/>
</svg>
