<svg width="360" height="300" viewBox="0 0 360 300" fill="none" xmlns="http://www.w3.org/2000/svg">
<path d="M317.887 57.271C276.372 13.7122 164.233 -4.26133 106.463 7.54278C49.4481 19.1941 28.0078 85.3774 92.6726 106.464C123.94 116.664 137.473 116.912 161.501 142.755C187.058 170.279 213.751 185.903 252.028 190.316C326.921 198.968 376.01 118.278 317.887 57.271Z" fill="#4098FF" fill-opacity="0.48"/>
<path d="M175.143 299.751C261.298 299.751 331.141 295.673 331.141 290.643C331.141 285.613 261.298 281.535 175.143 281.535C88.9871 281.535 19.1444 285.613 19.1444 290.643C19.1444 295.673 88.9871 299.751 175.143 299.751Z" fill="#F5F5F5"/>
<path d="M179.061 276.016L246.065 278.929L236.402 60.0292L169.39 57.1167L179.061 276.016Z" fill="#407BFF"/>
<path opacity="0.6" d="M179.061 276.016L246.065 278.929L236.402 60.0292L169.39 57.1167L179.061 276.016Z" fill="#044EB1"/>
<path d="M112.724 288.302L179.061 276.016L169.39 57.1167L103.053 69.4025L112.724 288.302Z" fill="#407BFF"/>
<path opacity="0.6" d="M112.724 288.302L179.061 276.016L169.39 57.1167L103.053 69.4025L112.724 288.302Z" fill="#044EB1"/>
<path d="M45.7113 285.389L112.724 288.302L103.053 69.4023L36.0404 66.4897L45.7113 285.389Z" fill="#407BFF"/>
<path opacity="0.6" d="M45.7113 285.389L112.724 288.302L103.053 69.4023L36.0404 66.4897L45.7113 285.389Z" fill="#044EB1"/>
<path opacity="0.6" d="M74.6678 139.754C84.5724 139.754 92.6017 131.725 92.6017 121.82C92.6017 111.916 84.5724 103.886 74.6678 103.886C64.7632 103.886 56.7339 111.916 56.7339 121.82C56.7339 131.725 64.7632 139.754 74.6678 139.754Z" fill="#407BFF"/>
<path d="M240.707 208.738L198.266 186.66L214.566 137.855L232.508 152.539L238.72 144.952L173.992 91.9786L129.998 64.2451L124.768 72.5322L149.823 88.3259L102.868 132.054L41.8333 177.207L47.6584 185.051L65.9302 171.535L87.7984 283.667L97.413 281.793L74.6598 165.106L89.8339 153.842L104.904 164.301L172.97 184.472L186.181 191.359L172.166 220.3L152.615 273.844L161.819 277.207L181.217 224.105L194.895 195.889L236.193 217.403L240.707 208.738ZM109.168 155.371L98.1291 147.719L108.878 139.77L109.095 139.601L158.359 93.7406L168.215 99.96L206.416 131.218L189.44 182.05L176.663 175.396L109.168 155.371Z" fill="#407BFF"/>
<g style="mix-blend-mode:multiply" opacity="0.3">
<path d="M113.352 288.302L179.688 276.016L170.017 57.1167L103.681 69.4025L113.352 288.302Z" fill="#587482"/>
</g>
<path opacity="0.7" d="M240.707 208.738L198.266 186.66L214.566 137.855L232.508 152.539L238.72 144.952L173.992 91.9786L129.998 64.2451L124.768 72.5322L149.823 88.3259L102.868 132.054L41.8333 177.207L47.6584 185.051L65.9302 171.535L87.7984 283.667L97.413 281.793L74.6598 165.106L89.8339 153.842L104.904 164.301L172.97 184.472L186.181 191.359L172.166 220.3L152.615 273.844L161.819 277.207L181.217 224.105L194.895 195.889L236.193 217.403L240.707 208.738ZM109.168 155.371L98.1291 147.719L108.878 139.77L109.095 139.601L158.359 93.7406L168.215 99.96L206.416 131.218L189.44 182.05L176.663 175.396L109.168 155.371Z" fill="#72B6FF"/>
<path d="M237.529 60.3431L169.293 57.3823L102.948 69.6601L34.7853 66.6992L44.5769 288.447L112.82 291.416L179.165 279.13L247.337 282.099L237.529 60.3431ZM179.6 269.354L178.49 269.306L177.395 269.515L112.153 281.584L53.9743 279.049L45.0435 76.9414L102.522 79.4356L103.64 79.4839L104.735 79.2827L169.977 67.2142L228.14 69.7405L237.094 271.84L179.6 269.354Z" fill="#407BFF"/>
<path opacity="0.7" d="M237.529 60.3431L169.293 57.3823L102.948 69.6601L34.7853 66.6992L44.5769 288.447L112.82 291.416L179.165 279.13L247.337 282.099L237.529 60.3431ZM179.6 269.354L178.49 269.306L177.395 269.515L112.153 281.584L53.9743 279.049L45.0435 76.9414L102.522 79.4356L103.64 79.4839L104.735 79.2827L169.977 67.2142L228.14 69.7405L237.094 271.84L179.6 269.354Z" fill="#044EB1"/>
<path d="M165.078 210.562C169.738 205.419 169.347 197.471 164.203 192.811C159.06 188.15 151.112 188.542 146.452 193.685C141.791 198.829 142.183 206.776 147.326 211.437C152.47 216.097 160.417 215.706 165.078 210.562Z" fill="#A9D3FF"/>
<path d="M74.6678 139.753C84.5724 139.753 92.6017 131.724 92.6017 121.82C92.6017 111.915 84.5724 103.886 74.6678 103.886C64.7632 103.886 56.7339 111.915 56.7339 121.82C56.7339 131.724 64.7632 139.753 74.6678 139.753Z" fill="#B6CCFF"/>
<path d="M272.133 104.868C266.132 99.7794 258.47 97.076 250.604 97.2722C242.739 97.4684 235.22 100.55 229.481 105.932C223.741 111.313 220.18 118.617 219.478 126.453C218.775 134.289 220.979 142.111 225.669 148.427L225.235 160.278L236.853 157.865C243.857 161.443 251.933 162.322 259.543 160.333C267.153 158.344 273.766 153.626 278.123 147.078C282.481 140.529 284.278 132.607 283.174 124.82C282.069 117.032 278.14 109.922 272.133 104.844V104.868Z" fill="#407BFF"/>
<path d="M253.45 153.478C266.773 152.354 276.663 140.643 275.54 127.32C274.416 113.996 262.705 104.106 249.381 105.23C236.058 106.353 226.168 118.065 227.292 131.388C228.415 144.711 240.127 154.601 253.45 153.478Z" fill="#407BFF"/>
<path opacity="0.3" d="M253.45 153.478C266.773 152.354 276.663 140.643 275.54 127.32C274.416 113.996 262.705 104.106 249.381 105.23C236.058 106.353 226.168 118.065 227.292 131.388C228.415 144.711 240.127 154.601 253.45 153.478Z" fill="#242424"/>
<path d="M265.238 286.419H259.333L258.745 272.733H264.651L265.238 286.419Z" fill="#E4897B"/>
<path d="M295.595 108.102C296.11 109.116 296.536 110.017 296.946 110.982C297.357 111.948 297.751 112.889 298.161 113.847C298.966 115.77 299.642 117.725 300.269 119.712C300.897 121.699 301.484 123.735 301.935 125.795C302.184 126.816 302.361 127.878 302.57 128.932C302.779 129.986 302.9 131.056 302.989 132.151L303.069 132.955V133.164V133.47C303.093 133.778 303.093 134.087 303.069 134.395C302.975 135.543 302.596 136.649 301.967 137.614C301.068 138.929 299.868 140.01 298.467 140.768C296.444 141.867 294.278 142.68 292.03 143.181C287.96 144.136 283.796 144.635 279.616 144.67L279.053 140.269C282.753 139.305 286.398 138.139 289.971 136.777C291.543 136.174 293.039 135.388 294.428 134.436C294.967 134.041 295.329 133.567 295.233 133.551C295.129 133.673 295.067 133.825 295.056 133.985C295.052 134.044 295.052 134.103 295.056 134.162C295.056 134.162 295.056 134.21 295.056 134.162V134.082V133.913L294.927 133.253C294.205 129.612 293.188 126.036 291.886 122.56C291.242 120.774 290.542 118.996 289.826 117.226C289.11 115.456 288.321 113.662 287.597 112.036L295.595 108.102Z" fill="#E4897B"/>
<path d="M294.549 103.79C299.682 106.203 302.594 122.375 302.594 122.375L290.067 127.372C288.238 122.893 286.759 118.28 285.642 113.573C283.92 106.123 289.311 101.295 294.549 103.79Z" fill="#407BFF"/>
<path opacity="0.7" d="M294.549 103.79C299.682 106.203 302.594 122.375 302.594 122.375L290.067 127.372C288.238 122.893 286.759 118.28 285.642 113.573C283.92 106.123 289.311 101.295 294.549 103.79Z" fill="#F2F5FF"/>
<path d="M309.618 286.419H303.705L299.634 272.733H305.547L309.618 286.419Z" fill="#E4897B"/>
<path d="M258.745 272.733L259.043 279.789H264.957L264.659 272.733H258.745Z" fill="#CE6F64"/>
<path d="M305.547 272.733H299.634L301.734 279.789H307.647L305.547 272.733Z" fill="#CE6F64"/>
<path d="M271.232 154.767C271.232 154.767 266.332 196.315 270.009 213.211C274.032 231.716 299.4 278.43 299.4 278.43H310.23C310.23 278.43 290.043 233.237 287.742 214.869C285.248 194.956 291.636 170.907 291.636 154.759L271.232 154.767Z" fill="#407BFF"/>
<path opacity="0.6" d="M271.232 154.767C271.232 154.767 266.332 196.315 270.009 213.211C274.032 231.716 299.4 278.43 299.4 278.43H310.23C310.23 278.43 290.043 233.237 287.742 214.869C285.248 194.956 291.636 170.907 291.636 154.759L271.232 154.767Z" fill="#242424"/>
<path d="M280.227 139.995L276.1 138.515L276.229 146.07C276.229 146.07 279.568 146.287 281.418 144.114L280.227 139.995Z" fill="#E4897B"/>
<path d="M270.886 138.241L271.289 144.477L276.229 146.062L276.1 138.515L270.886 138.241Z" fill="#E4897B"/>
<path d="M264.554 86.0891C264.651 86.5557 264.482 86.9821 264.176 87.0465C263.87 87.1109 263.549 86.781 263.452 86.3143C263.356 85.8477 263.525 85.4132 263.83 85.3569C264.136 85.3006 264.45 85.5983 264.554 86.0891Z" fill="#263238"/>
<path d="M264.522 86.9497C264.251 88.4913 263.769 89.9884 263.09 91.399C263.453 91.5675 263.848 91.6548 264.249 91.6548C264.649 91.6548 265.044 91.5675 265.407 91.399L264.522 86.9497Z" fill="#DE5753"/>
<path d="M263.348 83.2006C263.301 83.1994 263.256 83.187 263.215 83.1646C263.175 83.1422 263.14 83.1104 263.114 83.0719C263.094 83.041 263.08 83.0062 263.073 82.9698C263.067 82.9333 263.067 82.8959 263.076 82.8598C263.084 82.8237 263.099 82.7896 263.121 82.7597C263.143 82.7298 263.171 82.7046 263.203 82.6857C263.591 82.4699 264.025 82.3506 264.469 82.338C264.913 82.3254 265.353 82.4198 265.753 82.6132C265.82 82.6447 265.872 82.7011 265.897 82.7703C265.923 82.8396 265.92 82.916 265.89 82.9834C265.875 83.0171 265.854 83.0476 265.827 83.0729C265.8 83.0982 265.769 83.1178 265.734 83.1306C265.699 83.1434 265.663 83.149 265.626 83.1472C265.589 83.1454 265.553 83.1362 265.52 83.1201C265.204 82.9654 264.857 82.8884 264.505 82.8954C264.154 82.9024 263.809 82.9932 263.5 83.1604C263.453 83.186 263.401 83.1998 263.348 83.2006Z" fill="#263238"/>
<path d="M281.571 86.8936C280.718 91.2141 279.873 99.1391 282.899 102.028C282.899 102.028 281.716 106.412 273.686 106.412C264.836 106.412 269.462 102.028 269.462 102.028C274.29 100.869 274.161 97.2966 273.316 93.9335L281.571 86.8936Z" fill="#E4897B"/>
<path d="M267.716 102.848L268.698 101.086C268.698 101.086 283.985 98.2941 284.411 101.4C284.452 102.055 284.384 102.713 284.21 103.347L267.716 102.848Z" fill="#407BFF"/>
<path d="M301.227 286.725C300.975 286.757 300.719 286.739 300.475 286.672C300.23 286.604 300.002 286.488 299.803 286.33C299.731 286.235 299.692 286.12 299.692 286.001C299.692 285.882 299.731 285.766 299.803 285.671C299.847 285.588 299.909 285.515 299.984 285.458C300.059 285.401 300.145 285.361 300.237 285.341C301.106 285.132 302.731 286.258 302.804 286.306C302.827 286.321 302.845 286.342 302.855 286.368C302.866 286.393 302.869 286.421 302.864 286.447C302.859 286.474 302.846 286.499 302.826 286.518C302.807 286.538 302.782 286.551 302.755 286.556C302.253 286.664 301.741 286.721 301.227 286.725ZM300.486 285.598C300.428 285.59 300.368 285.59 300.309 285.598C300.256 285.609 300.205 285.631 300.161 285.663C300.116 285.695 300.079 285.736 300.052 285.783C299.923 286.017 300.004 286.113 300.052 286.145C300.301 286.475 301.508 286.483 302.393 286.339C301.819 285.961 301.167 285.716 300.486 285.622V285.598Z" fill="#407BFF"/>
<path d="M302.731 286.564C302.711 286.572 302.688 286.572 302.667 286.564C302.055 286.234 300.873 284.955 300.993 284.279C301.016 284.176 301.072 284.084 301.154 284.018C301.236 283.952 301.339 283.916 301.444 283.917C301.55 283.905 301.657 283.915 301.759 283.945C301.862 283.976 301.957 284.026 302.039 284.094C302.723 284.657 302.844 286.363 302.844 286.435C302.847 286.46 302.843 286.486 302.831 286.509C302.82 286.532 302.802 286.551 302.78 286.564C302.764 286.567 302.747 286.567 302.731 286.564ZM301.54 284.15H301.46C301.275 284.15 301.259 284.255 301.251 284.295C301.178 284.681 301.935 285.663 302.538 286.121C302.497 285.449 302.256 284.805 301.846 284.271C301.758 284.204 301.651 284.167 301.54 284.166V284.15Z" fill="#407BFF"/>
<path d="M256.959 286.725C256.195 286.725 255.463 286.62 255.221 286.274C255.158 286.185 255.125 286.078 255.125 285.968C255.125 285.859 255.158 285.752 255.221 285.663C255.27 285.582 255.334 285.513 255.41 285.457C255.486 285.402 255.572 285.362 255.664 285.341C256.653 285.067 258.713 286.25 258.802 286.298C258.828 286.312 258.849 286.333 258.862 286.359C258.875 286.385 258.879 286.414 258.874 286.443C258.869 286.471 258.856 286.497 258.836 286.517C258.816 286.538 258.79 286.551 258.761 286.556C258.167 286.664 257.564 286.72 256.959 286.725ZM256.018 285.574C255.93 285.565 255.841 285.565 255.752 285.574C255.694 285.587 255.639 285.611 255.591 285.646C255.543 285.681 255.502 285.725 255.471 285.775C255.374 285.944 255.414 286.033 255.471 286.081C255.744 286.467 257.241 286.475 258.343 286.314C257.623 285.92 256.833 285.669 256.018 285.574Z" fill="#407BFF"/>
<path d="M258.745 286.564H258.681C257.973 286.242 256.557 284.955 256.67 284.295C256.67 284.142 256.806 283.941 257.185 283.909C257.328 283.889 257.474 283.9 257.613 283.941C257.752 283.983 257.88 284.054 257.989 284.15C258.737 284.762 258.898 286.355 258.906 286.419C258.909 286.443 258.905 286.468 258.895 286.491C258.885 286.513 258.87 286.533 258.85 286.548C258.818 286.564 258.781 286.57 258.745 286.564ZM257.297 284.15H257.209C256.959 284.15 256.943 284.279 256.935 284.311C256.871 284.713 257.828 285.711 258.544 286.153C258.467 285.477 258.186 284.84 257.74 284.327C257.612 284.231 257.457 284.174 257.297 284.166V284.15Z" fill="#407BFF"/>
<path d="M301.532 286.427H309.506C309.638 286.422 309.768 286.46 309.877 286.535C309.986 286.611 310.067 286.719 310.109 286.845L311.501 292.26C311.524 292.402 311.514 292.549 311.472 292.687C311.429 292.825 311.355 292.951 311.255 293.056C311.155 293.16 311.032 293.24 310.896 293.289C310.76 293.338 310.615 293.355 310.471 293.338C307.695 293.338 306.344 293.161 302.852 293.161C300.704 293.161 296.27 293.354 293.31 293.354C290.349 293.354 289.947 290.828 291.161 290.594C296.616 289.565 298.668 288.181 300.414 286.805C300.735 286.56 301.128 286.427 301.532 286.427Z" fill="#263238"/>
<path d="M259.373 285.735H265.809C265.926 285.734 266.04 285.774 266.131 285.847C266.221 285.92 266.284 286.023 266.308 286.137L267.483 291.391C267.512 291.518 267.512 291.651 267.483 291.778C267.453 291.905 267.395 292.024 267.313 292.126C267.231 292.227 267.127 292.309 267.009 292.364C266.89 292.419 266.761 292.447 266.63 292.445C264.297 292.405 260.934 292.268 258.013 292.268C254.586 292.268 251.633 292.453 247.618 292.453C245.204 292.453 244.521 289.999 245.534 289.782C250.161 288.768 253.934 288.663 257.933 286.193C258.36 285.909 258.859 285.75 259.373 285.735Z" fill="#263238"/>
<path d="M267.226 112.334C264.434 115.609 261.594 118.771 258.697 121.989C255.801 125.207 252.84 128.264 249.807 131.346L247.554 133.615L247.208 133.953C247.014 134.143 246.81 134.323 246.596 134.492C246.201 134.799 245.778 135.068 245.333 135.296C244.571 135.697 243.76 135.994 242.919 136.181C240.379 136.694 237.765 136.727 235.212 136.278C230.751 135.551 226.404 134.245 222.282 132.392L223.602 128.152C227.625 128.815 231.69 129.196 235.767 129.294C236.697 129.299 237.626 129.254 238.551 129.158C239.317 129.089 240.071 128.924 240.795 128.667C241.004 128.588 241.201 128.482 241.383 128.353C241.423 128.313 241.447 128.289 241.439 128.272L241.52 128.184L241.648 128.031L243.724 125.617L252.059 115.963C254.851 112.744 257.691 109.526 260.507 106.388L267.226 112.334Z" fill="#E4897B"/>
<path opacity="0.2" d="M289.343 114.426L285.61 113.621C286.727 118.328 288.206 122.941 290.035 127.419L295.208 125.352C294.146 122.576 291.459 118.497 289.343 114.426Z" fill="#407BFF"/>
<path d="M257.611 117.153C257.442 120.259 257.41 124.049 257.611 128.667L263.106 115.263L257.611 117.153Z" fill="#407BFF"/>
<path d="M224.398 128.571L219.901 124.25L217.423 131.491C217.423 131.491 219.144 133.631 223.304 132.513L224.398 128.571Z" fill="#E4897B"/>
<path d="M216.489 122.753L214.743 129.085L217.423 131.507L219.901 124.25L216.489 122.753Z" fill="#E4897B"/>
<path d="M279.946 81.9373C280.75 87.7543 281.515 91.1094 279.206 94.6414C275.738 99.9516 268.127 98.7447 265.6 93.2898C263.331 88.3819 262.382 79.7006 267.563 76.2892C268.697 75.5308 270.005 75.0748 271.365 74.9646C272.724 74.8544 274.089 75.0937 275.33 75.6597C276.571 76.2257 277.646 77.0996 278.454 78.1983C279.262 79.2971 279.775 80.5842 279.946 81.9373Z" fill="#E4897B"/>
<path d="M286.35 78.8478C286.431 75.0904 283.743 72.3549 282.376 72.7572C280.766 66.0229 269.261 69.4423 269.261 69.4423C269.261 69.4423 271.94 65.6206 266.743 65.6045C261.545 65.5884 263.002 69.7481 263.002 69.7481C263.002 69.7481 259.84 66.6505 257.78 70.0055C255.72 73.3606 260.194 74.5272 260.194 74.5272C260.194 74.5272 256.46 73.6663 255.97 78.5501C255.479 83.4338 262.125 79.5397 262.125 79.5397C263.251 81.6155 264.579 82.0258 265.866 81.8569C266.547 81.7791 267.234 81.9415 267.808 82.3161C268.383 82.6906 268.808 83.2538 269.012 83.9085C270.87 89.5405 274.426 94.6173 279.729 93.0645C283.969 91.8094 286.229 84.343 286.35 78.8478Z" fill="#263238"/>
<path d="M272.495 84.4235C272.673 85.8721 272.371 87.339 271.635 88.5992C270.645 90.2083 269.157 89.6371 268.593 87.9877C268.086 86.4993 267.99 83.8603 269.398 82.7821C270.806 81.704 272.262 82.6856 272.495 84.4235Z" fill="#E4897B"/>
<path opacity="0.3" d="M274.193 169.048C273.211 166.168 271.385 169.145 269.486 173.948C268.819 183.474 268.328 194.867 268.875 203.958C271.071 192.751 276.357 175.396 274.193 169.048Z" fill="#242424"/>
<path d="M260.025 154.767C260.025 154.767 247.152 191.866 247.779 209.896C248.447 228.643 256.847 278.421 256.847 278.421H266.863C266.863 278.421 265.383 229.737 265.826 211.32C266.316 191.246 280.807 154.767 280.807 154.767H260.025Z" fill="#407BFF"/>
<path opacity="0.6" d="M260.025 154.767C260.025 154.767 247.152 191.866 247.779 209.896C248.447 228.643 256.847 278.421 256.847 278.421H266.863C266.863 278.421 265.383 229.737 265.826 211.32C266.316 191.246 280.807 154.767 280.807 154.767H260.025Z" fill="#242424"/>
<path d="M296.496 274.624C296.448 274.624 298.789 278.591 298.789 278.591H310.97L309.771 274.624H296.496Z" fill="#407BFF"/>
<path d="M254.916 274.438C254.867 274.438 255.479 278.59 255.479 278.59H267.668L267.998 274.881L254.916 274.438Z" fill="#407BFF"/>
<path d="M260.371 103.677C260.371 103.677 254.079 110.789 260.025 154.767H291.636C291.853 149.94 288.804 126.245 293.487 103.379C289.99 102.702 286.453 102.256 282.899 102.044C278.424 101.778 273.937 101.778 269.462 102.044C266.394 102.352 263.354 102.898 260.371 103.677Z" fill="#407BFF"/>
<path opacity="0.7" d="M260.371 103.677C260.371 103.677 254.079 110.789 260.025 154.767H291.636C291.853 149.94 288.804 126.245 293.487 103.379C289.99 102.702 286.453 102.256 282.899 102.044C278.424 101.778 273.937 101.778 269.462 102.044C266.394 102.352 263.354 102.898 260.371 103.677Z" fill="#F2F5FF"/>
<path d="M266.67 108.907C266.598 114.539 255.535 128.321 255.535 128.321L244.802 120.203C244.802 120.203 248.214 112.447 253.652 107.547C260.58 101.263 266.751 102.293 266.67 108.907Z" fill="#407BFF"/>
<path opacity="0.7" d="M266.67 108.907C266.598 114.539 255.535 128.321 255.535 128.321L244.802 120.203C244.802 120.203 248.214 112.447 253.652 107.547C260.58 101.263 266.751 102.293 266.67 108.907Z" fill="#F2F5FF"/>
</svg>
